<svg width="1200" height="800" viewBox="0 0 1200 800" fill="none" xmlns="http://www.w3.org/2000/svg">
<g clip-path="url(#clip0_29_2)">
<rect width="1200" height="800" fill="#202534"/>
<g clip-path="url(#clip1_29_2)">
<path d="M896.497 192.177C896.497 201.309 889.095 208.711 879.964 208.711C870.832 208.711 863.43 201.309 863.43 192.177C863.43 183.046 870.832 175.644 879.964 175.644C889.095 175.644 896.497 183.046 896.497 192.177Z" fill="black" fill-opacity="0.2"/>
<path fill-rule="evenodd" clip-rule="evenodd" d="M931.446 162.366C954.022 169.276 968.747 180.419 968.747 192.177C968.747 203.899 954.094 215.042 931.663 221.953C936.909 244.89 934.63 263.16 924.464 269.021C922.076 270.396 919.326 271.047 916.287 271.047C906.338 271.047 893.314 264.029 880.145 251.8C866.976 264.101 853.951 271.192 844.002 271.192C840.963 271.192 838.213 270.541 835.862 269.166C825.659 263.305 823.344 244.999 828.554 221.989C805.978 215.079 791.253 203.936 791.253 192.177C791.253 180.455 805.906 169.349 828.409 162.402C823.163 139.465 825.442 121.194 835.608 115.333C837.996 113.959 840.746 113.307 843.785 113.307V113.271C853.734 113.271 866.758 120.29 879.928 132.518C893.097 120.218 906.121 113.127 916.07 113.127V113.163C919.059 113.168 921.796 113.82 924.138 115.189C934.341 121.05 936.656 139.356 931.446 162.366ZM916.034 121.195C908.51 121.214 897.455 127.218 885.68 138.162C890.781 143.481 895.846 149.559 900.73 156.252C908.871 157.12 916.613 158.459 923.704 160.195C924.5 156.541 925.151 152.96 925.549 149.559C927.213 135.738 925.079 124.993 920.158 122.171C919.037 121.556 917.698 121.231 916.034 121.231V121.195ZM874.175 138.199C862.381 127.309 851.274 121.339 843.785 121.339V121.375C842.121 121.375 840.71 121.665 839.624 122.316C834.74 125.174 832.642 135.919 834.342 149.74C834.776 153.104 835.391 156.614 836.223 160.231C843.315 158.459 851.057 157.12 859.233 156.252C864.045 149.559 869.11 143.517 874.175 138.199ZM916.758 182.337C918.639 177.525 920.303 172.713 921.642 168.046C916.902 166.888 911.946 165.948 906.808 165.188C908.581 167.938 910.354 170.76 912.018 173.654C913.719 176.548 915.274 179.442 916.758 182.337ZM896.353 220.397C899.356 216.092 902.25 211.461 905.072 206.577C907.785 201.837 910.282 196.989 912.561 192.141C910.282 187.293 907.785 182.481 905.036 177.742C902.214 172.894 899.283 168.299 896.28 163.994C890.926 163.56 885.463 163.307 880 163.307C874.501 163.307 869.038 163.56 863.647 164.03C860.644 168.336 857.75 172.966 854.928 177.851C852.215 182.59 849.682 187.438 847.439 192.286C849.718 197.134 852.215 201.946 854.964 206.685C857.786 211.533 860.717 216.128 863.719 220.433C869.074 220.867 874.537 221.12 880 221.12C885.499 221.12 890.962 220.867 896.353 220.397ZM921.75 216.273C920.376 211.569 918.711 206.721 916.758 201.873C915.274 204.768 913.719 207.698 912.054 210.592C910.39 213.523 908.617 216.381 906.845 219.167C912.018 218.407 917.011 217.43 921.75 216.273ZM870.015 228.899C873.343 233.132 876.708 237.003 880.072 240.476C883.401 237.003 886.765 233.132 890.021 228.899C886.729 229.08 883.365 229.152 879.964 229.152C876.599 229.152 873.271 229.044 870.015 228.899ZM838.322 216.309C843.061 217.466 848.018 218.407 853.155 219.167C851.382 216.417 849.646 213.595 847.945 210.701C846.245 207.807 844.689 204.912 843.206 202.018C841.325 206.83 839.66 211.642 838.322 216.309ZM889.949 155.456C886.621 151.223 883.256 147.352 879.891 143.879C876.563 147.352 873.198 151.223 869.942 155.456C873.234 155.275 876.599 155.203 880 155.203C883.365 155.203 886.693 155.311 889.949 155.456ZM847.909 173.762C849.573 170.832 851.346 167.974 853.119 165.188C847.945 165.948 842.953 166.925 838.213 168.046C839.588 172.749 841.252 177.597 843.206 182.445C844.689 179.551 846.245 176.657 847.909 173.762ZM799.285 192.177C799.285 197.857 807.57 205.021 820.377 210.484C823.525 211.823 826.926 213.053 830.507 214.174C832.533 207.119 835.21 199.775 838.539 192.25C835.174 184.688 832.461 177.308 830.399 170.217C826.889 171.338 823.489 172.532 820.377 173.871C807.57 179.298 799.285 186.497 799.285 192.177ZM834.451 234.796C832.787 248.616 834.921 259.362 839.841 262.184C840.927 262.799 842.302 263.124 843.93 263.16C851.455 263.16 862.526 257.155 874.32 246.192C869.219 240.874 864.154 234.796 859.269 228.103C851.129 227.235 843.387 225.896 836.296 224.16C835.5 227.814 834.849 231.395 834.451 234.796ZM920.376 262.039C925.26 259.181 927.358 248.436 925.658 234.615C925.26 231.251 924.608 227.741 923.776 224.087C916.685 225.86 908.943 227.199 900.767 228.067C895.955 234.76 890.89 240.802 885.825 246.12C897.619 257.01 908.726 262.979 916.215 262.979C917.879 262.979 919.29 262.69 920.376 262.039ZM929.565 214.138C933.074 213.016 936.475 211.823 939.587 210.484C952.394 205.057 960.679 197.857 960.715 192.177C960.715 186.497 952.43 179.334 939.623 173.871C936.439 172.532 933.038 171.302 929.456 170.181C927.43 177.236 924.753 184.58 921.425 192.105C924.789 199.666 927.503 207.047 929.565 214.138Z" fill="black" fill-opacity="0.2"/>
</g>
<g clip-path="url(#clip2_29_2)">
<path d="M899.395 460.416C899.395 474.473 888 485.867 873.944 485.867C859.888 485.867 848.493 474.473 848.493 460.416C848.493 446.36 859.888 434.966 873.944 434.966C888 434.966 899.395 446.36 899.395 460.416Z" fill="black" fill-opacity="0.2"/>
<path fill-rule="evenodd" clip-rule="evenodd" d="M953.192 414.527C987.944 425.164 1010.61 442.317 1010.61 460.416C1010.61 478.46 988.055 495.613 953.527 506.25C961.602 541.558 958.093 569.682 942.444 578.704C938.769 580.82 934.536 581.823 929.858 581.823C914.543 581.823 894.494 571.019 874.223 552.195C853.951 571.13 833.902 582.046 818.587 582.046C813.909 582.046 809.677 581.043 806.057 578.927C790.352 569.905 786.788 541.725 794.807 506.306C760.056 495.669 737.39 478.516 737.39 460.416C737.39 442.373 759.945 425.275 794.584 414.583C786.509 379.275 790.018 351.151 805.667 342.129C809.342 340.012 813.575 339.01 818.253 339.01V338.954C833.568 338.954 853.617 349.758 873.888 368.582C894.16 349.647 914.209 338.731 929.524 338.731V338.787C934.124 338.795 938.338 339.798 941.943 341.906C957.648 350.928 961.212 379.107 953.192 414.527ZM929.468 351.151C917.885 351.18 900.87 360.422 882.743 377.27C890.596 385.456 898.392 394.812 905.911 405.115C918.441 406.452 930.359 408.512 941.275 411.186C942.5 405.561 943.502 400.047 944.115 394.812C946.677 373.538 943.391 356.998 935.817 352.654C934.09 351.707 932.03 351.206 929.468 351.206V351.151ZM865.034 377.325C846.878 360.562 829.781 351.373 818.253 351.373V351.429C815.691 351.429 813.519 351.875 811.849 352.877C804.33 357.277 801.1 373.817 803.718 395.091C804.386 400.27 805.333 405.672 806.614 411.241C817.529 408.512 829.447 406.452 842.033 405.115C849.44 394.812 857.237 385.512 865.034 377.325ZM930.582 445.268C933.478 437.862 936.04 430.455 938.1 423.27C930.805 421.488 923.175 420.04 915.267 418.871C917.996 423.103 920.725 427.447 923.286 431.903C925.904 436.358 928.299 440.813 930.582 445.268ZM899.172 503.855C903.795 497.228 908.25 490.1 912.594 482.581C916.771 475.286 920.613 467.823 924.122 460.361C920.613 452.898 916.771 445.491 912.538 438.196C908.194 430.733 903.683 423.66 899.061 417.033C890.819 416.365 882.409 415.975 874 415.975C865.535 415.975 857.125 416.365 848.827 417.089C844.205 423.716 839.75 430.844 835.406 438.363C831.229 445.658 827.331 453.121 823.878 460.583C827.386 468.046 831.229 475.453 835.462 482.749C839.805 490.211 844.316 497.284 848.939 503.911C857.181 504.579 865.59 504.969 874 504.969C882.465 504.969 890.874 504.579 899.172 503.855ZM938.267 497.507C936.151 490.267 933.589 482.804 930.582 475.342C928.299 479.797 925.904 484.308 923.342 488.763C920.78 493.274 918.051 497.674 915.323 501.962C923.286 500.792 930.972 499.289 938.267 497.507ZM858.629 516.943C863.753 523.459 868.932 529.418 874.111 534.764C879.235 529.418 884.414 523.459 889.426 516.943C884.358 517.221 879.179 517.333 873.944 517.333C868.765 517.333 863.641 517.166 858.629 516.943ZM809.844 497.562C817.139 499.344 824.769 500.792 832.677 501.962C829.948 497.729 827.275 493.386 824.658 488.93C822.04 484.475 819.645 480.02 817.362 475.564C814.466 482.971 811.904 490.378 809.844 497.562ZM889.315 403.89C884.191 397.374 879.012 391.415 873.833 386.069C868.709 391.415 863.53 397.374 858.518 403.89C863.586 403.612 868.765 403.5 874 403.5C879.179 403.5 884.303 403.667 889.315 403.89ZM824.602 432.07C827.164 427.559 829.892 423.159 832.621 418.871C824.658 420.04 816.972 421.544 809.677 423.27C811.793 430.51 814.355 437.973 817.362 445.436C819.645 440.98 822.04 436.525 824.602 432.07ZM749.753 460.416C749.753 469.16 762.506 480.187 782.221 488.596C787.066 490.657 792.301 492.55 797.814 494.277C800.933 483.417 805.054 472.112 810.178 460.528C804.999 448.888 800.822 437.527 797.647 426.612C792.245 428.338 787.01 430.176 782.221 432.237C762.506 440.59 749.753 451.673 749.753 460.416ZM803.885 526.02C801.323 547.294 804.609 563.835 812.183 568.179C813.853 569.125 815.97 569.627 818.476 569.682C830.06 569.682 847.101 560.438 865.256 543.563C857.404 535.377 849.607 526.02 842.089 515.718C829.558 514.381 817.64 512.32 806.725 509.647C805.5 515.272 804.497 520.786 803.885 526.02ZM936.151 567.956C943.669 563.556 946.899 547.016 944.282 525.742C943.669 520.563 942.667 515.161 941.386 509.536C930.471 512.265 918.553 514.325 905.966 515.662C898.56 525.965 890.763 535.265 882.966 543.452C901.121 560.215 918.218 569.404 929.747 569.404C932.308 569.404 934.48 568.958 936.151 567.956ZM950.297 494.221C955.699 492.494 960.934 490.657 965.723 488.596C985.438 480.242 998.191 469.16 998.247 460.416C998.247 451.673 985.493 440.646 965.779 432.237C960.878 430.176 955.643 428.283 950.129 426.556C947.011 437.416 942.89 448.721 937.766 460.305C942.945 471.944 947.122 483.305 950.297 494.221Z" fill="black" fill-opacity="0.2"/>
</g>
<g clip-path="url(#clip3_29_2)">
<path d="M581.497 641.177C581.497 650.309 574.095 657.711 564.964 657.711C555.832 657.711 548.43 650.309 548.43 641.177C548.43 632.046 555.832 624.644 564.964 624.644C574.095 624.644 581.497 632.046 581.497 641.177Z" fill="black" fill-opacity="0.2"/>
<path fill-rule="evenodd" clip-rule="evenodd" d="M616.446 611.366C639.022 618.276 653.747 629.419 653.747 641.177C653.747 652.899 639.094 664.042 616.663 670.953C621.909 693.89 619.63 712.16 609.464 718.021C607.076 719.396 604.326 720.047 601.287 720.047C591.338 720.047 578.314 713.029 565.145 700.8C551.976 713.101 538.951 720.192 529.002 720.192C525.963 720.192 523.213 719.541 520.862 718.166C510.659 712.305 508.344 693.999 513.554 670.989C490.978 664.079 476.253 652.936 476.253 641.177C476.253 629.455 490.906 618.349 513.409 611.402C508.163 588.465 510.442 570.194 520.608 564.333C522.996 562.959 525.746 562.307 528.785 562.307V562.271C538.734 562.271 551.758 569.29 564.928 581.518C578.097 569.218 591.121 562.127 601.07 562.127V562.163C604.059 562.168 606.796 562.82 609.138 564.189C619.341 570.05 621.656 588.356 616.446 611.366ZM601.034 570.195C593.51 570.214 582.455 576.218 570.68 587.162C575.781 592.481 580.846 598.559 585.73 605.252C593.871 606.12 601.613 607.459 608.704 609.195C609.5 605.541 610.151 601.96 610.549 598.559C612.213 584.738 610.079 573.993 605.158 571.171C604.037 570.556 602.698 570.231 601.034 570.231V570.195ZM559.175 587.199C547.381 576.309 536.274 570.339 528.785 570.339V570.375C527.121 570.375 525.71 570.665 524.624 571.316C519.74 574.174 517.642 584.919 519.342 598.74C519.776 602.104 520.391 605.614 521.223 609.231C528.315 607.459 536.057 606.12 544.233 605.252C549.045 598.559 554.11 592.517 559.175 587.199ZM601.758 631.337C603.639 626.525 605.303 621.713 606.642 617.046C601.902 615.888 596.946 614.948 591.808 614.188C593.581 616.938 595.354 619.76 597.018 622.654C598.719 625.548 600.274 628.442 601.758 631.337ZM581.353 669.397C584.356 665.092 587.25 660.461 590.072 655.577C592.785 650.837 595.282 645.989 597.561 641.141C595.282 636.293 592.785 631.481 590.036 626.742C587.214 621.894 584.283 617.299 581.28 612.994C575.926 612.56 570.463 612.307 565 612.307C559.501 612.307 554.038 612.56 548.647 613.03C545.644 617.336 542.75 621.966 539.928 626.851C537.215 631.59 534.682 636.438 532.439 641.286C534.718 646.134 537.215 650.946 539.964 655.685C542.786 660.533 545.717 665.128 548.719 669.433C554.074 669.867 559.537 670.12 565 670.12C570.499 670.12 575.962 669.867 581.353 669.397ZM606.75 665.273C605.376 660.569 603.711 655.721 601.758 650.873C600.274 653.768 598.719 656.698 597.054 659.592C595.39 662.523 593.617 665.381 591.845 668.167C597.018 667.407 602.011 666.43 606.75 665.273ZM555.015 677.899C558.343 682.132 561.708 686.003 565.072 689.476C568.401 686.003 571.765 682.132 575.021 677.899C571.729 678.08 568.365 678.152 564.964 678.152C561.599 678.152 558.271 678.044 555.015 677.899ZM523.322 665.309C528.061 666.466 533.018 667.407 538.155 668.167C536.382 665.417 534.646 662.595 532.945 659.701C531.245 656.807 529.689 653.912 528.206 651.018C526.325 655.83 524.66 660.642 523.322 665.309ZM574.949 604.456C571.621 600.223 568.256 596.352 564.891 592.879C561.563 596.352 558.198 600.223 554.942 604.456C558.234 604.275 561.599 604.203 565 604.203C568.365 604.203 571.693 604.311 574.949 604.456ZM532.909 622.762C534.573 619.832 536.346 616.974 538.119 614.188C532.945 614.948 527.953 615.925 523.213 617.046C524.588 621.749 526.252 626.597 528.206 631.445C529.689 628.551 531.245 625.657 532.909 622.762ZM484.285 641.177C484.285 646.857 492.57 654.021 505.377 659.484C508.525 660.823 511.926 662.053 515.507 663.174C517.533 656.119 520.21 648.775 523.539 641.25C520.174 633.688 517.461 626.308 515.399 619.217C511.889 620.338 508.489 621.532 505.377 622.871C492.57 628.298 484.285 635.497 484.285 641.177ZM519.451 683.796C517.787 697.616 519.921 708.362 524.841 711.184C525.927 711.799 527.302 712.124 528.93 712.16C536.455 712.16 547.526 706.155 559.32 695.192C554.219 689.874 549.154 683.796 544.269 677.103C536.129 676.235 528.387 674.896 521.296 673.16C520.5 676.814 519.849 680.395 519.451 683.796ZM605.376 711.039C610.26 708.181 612.358 697.436 610.658 683.615C610.26 680.251 609.608 676.741 608.776 673.087C601.685 674.86 593.943 676.199 585.767 677.067C580.955 683.76 575.89 689.802 570.825 695.12C582.619 706.01 593.726 711.979 601.215 711.979C602.879 711.979 604.29 711.69 605.376 711.039ZM614.565 663.138C618.074 662.016 621.475 660.823 624.587 659.484C637.394 654.057 645.679 646.857 645.715 641.177C645.715 635.497 637.43 628.334 624.623 622.871C621.439 621.532 618.038 620.302 614.456 619.181C612.43 626.236 609.753 633.58 606.425 641.105C609.789 648.666 612.503 656.047 614.565 663.138Z" fill="black" fill-opacity="0.2"/>
</g>
<g clip-path="url(#clip4_29_2)">
<path d="M1207.34 680.691C1207.34 687.575 1201.76 693.155 1194.88 693.155C1187.99 693.155 1182.41 687.575 1182.41 680.691C1182.41 673.807 1187.99 668.226 1194.88 668.226C1201.76 668.226 1207.34 673.807 1207.34 680.691Z" fill="black" fill-opacity="0.2"/>
<path fill-rule="evenodd" clip-rule="evenodd" d="M1233.69 658.216C1250.71 663.426 1261.81 671.827 1261.81 680.691C1261.81 689.528 1250.76 697.928 1233.85 703.138C1237.81 720.43 1236.09 734.204 1228.43 738.622C1226.63 739.659 1224.55 740.15 1222.26 740.15C1214.76 740.15 1204.94 734.858 1195.01 725.64C1185.09 734.913 1175.27 740.259 1167.77 740.259C1165.48 740.259 1163.4 739.768 1161.63 738.731C1153.94 734.313 1152.19 720.512 1156.12 703.165C1139.1 697.956 1128 689.555 1128 680.691C1128 671.854 1139.05 663.48 1156.01 658.244C1152.06 640.951 1153.77 627.178 1161.44 622.759C1163.24 621.723 1165.31 621.232 1167.6 621.232V621.205C1175.1 621.205 1184.92 626.496 1194.85 635.715C1204.78 626.441 1214.6 621.095 1222.1 621.095V621.123C1224.35 621.127 1226.41 621.618 1228.18 622.65C1235.87 627.069 1237.62 640.87 1233.69 658.216ZM1222.07 627.178C1216.4 627.192 1208.06 631.719 1199.19 639.97C1203.03 643.979 1206.85 648.561 1210.53 653.607C1216.67 654.262 1222.51 655.271 1227.85 656.58C1228.45 653.825 1228.94 651.125 1229.24 648.561C1230.5 638.142 1228.89 630.042 1225.18 627.914C1224.33 627.45 1223.32 627.205 1222.07 627.205V627.178ZM1190.51 639.997C1181.62 631.787 1173.25 627.287 1167.6 627.287V627.314C1166.35 627.314 1165.28 627.532 1164.47 628.023C1160.78 630.178 1159.2 638.279 1160.48 648.698C1160.81 651.234 1161.27 653.88 1161.9 656.607C1167.25 655.271 1173.08 654.262 1179.25 653.607C1182.88 648.561 1186.69 644.006 1190.51 639.997ZM1222.62 673.272C1224.03 669.645 1225.29 666.017 1226.3 662.499C1222.72 661.626 1218.99 660.917 1215.12 660.344C1216.45 662.417 1217.79 664.544 1219.04 666.726C1220.32 668.908 1221.5 671.09 1222.62 673.272ZM1207.23 701.965C1209.5 698.719 1211.68 695.228 1213.81 691.546C1215.85 687.973 1217.73 684.318 1219.45 680.664C1217.73 677.009 1215.85 673.381 1213.78 669.808C1211.65 666.153 1209.44 662.689 1207.18 659.444C1203.14 659.116 1199.02 658.926 1194.9 658.926C1190.76 658.926 1186.64 659.116 1182.58 659.471C1180.31 662.717 1178.13 666.208 1176 669.89C1173.96 673.463 1172.05 677.118 1170.36 680.773C1172.08 684.427 1173.96 688.055 1176.03 691.628C1178.16 695.283 1180.37 698.747 1182.63 701.992C1186.67 702.32 1190.79 702.511 1194.9 702.511C1199.05 702.511 1203.17 702.32 1207.23 701.965ZM1226.38 698.856C1225.34 695.31 1224.09 691.655 1222.62 688C1221.5 690.182 1220.32 692.392 1219.07 694.574C1217.82 696.783 1216.48 698.938 1215.14 701.038C1219.04 700.465 1222.81 699.729 1226.38 698.856ZM1187.38 708.375C1189.89 711.566 1192.42 714.484 1194.96 717.103C1197.47 714.484 1200 711.566 1202.46 708.375C1199.98 708.511 1197.44 708.566 1194.88 708.566C1192.34 708.566 1189.83 708.484 1187.38 708.375ZM1163.48 698.883C1167.06 699.756 1170.79 700.465 1174.67 701.038C1173.33 698.965 1172.02 696.837 1170.74 694.655C1169.46 692.473 1168.28 690.292 1167.17 688.11C1165.75 691.737 1164.49 695.365 1163.48 698.883ZM1202.41 653.007C1199.9 649.816 1197.36 646.897 1194.82 644.279C1192.31 646.897 1189.78 649.816 1187.32 653.007C1189.8 652.871 1192.34 652.816 1194.9 652.816C1197.44 652.816 1199.95 652.898 1202.41 653.007ZM1170.71 666.808C1171.97 664.599 1173.3 662.444 1174.64 660.344C1170.74 660.917 1166.98 661.653 1163.4 662.499C1164.44 666.044 1165.69 669.699 1167.17 673.354C1168.28 671.172 1169.46 668.99 1170.71 666.808ZM1134.05 680.691C1134.05 684.973 1140.3 690.373 1149.96 694.492C1152.33 695.501 1154.89 696.428 1157.59 697.274C1159.12 691.955 1161.14 686.418 1163.65 680.745C1161.11 675.045 1159.07 669.481 1157.51 664.135C1154.87 664.981 1152.3 665.881 1149.96 666.89C1140.3 670.981 1134.05 676.409 1134.05 680.691ZM1160.57 712.82C1159.31 723.239 1160.92 731.34 1164.63 733.467C1165.45 733.931 1166.48 734.177 1167.71 734.204C1173.38 734.204 1181.73 729.676 1190.62 721.412C1186.78 717.403 1182.96 712.82 1179.28 707.775C1173.14 707.12 1167.3 706.111 1161.96 704.802C1161.36 707.556 1160.87 710.257 1160.57 712.82ZM1225.34 733.358C1229.03 731.204 1230.61 723.103 1229.33 712.684C1229.03 710.148 1228.53 707.502 1227.91 704.747C1222.56 706.084 1216.72 707.093 1210.56 707.747C1206.93 712.793 1203.11 717.348 1199.3 721.357C1208.19 729.567 1216.56 734.067 1222.21 734.067C1223.46 734.067 1224.52 733.849 1225.34 733.358ZM1232.27 697.247C1234.92 696.401 1237.48 695.501 1239.83 694.492C1249.48 690.401 1255.73 684.973 1255.75 680.691C1255.75 676.409 1249.51 671.008 1239.85 666.89C1237.45 665.881 1234.89 664.953 1232.19 664.108C1230.66 669.426 1228.64 674.963 1226.13 680.636C1228.67 686.337 1230.72 691.901 1232.27 697.247Z" fill="black" fill-opacity="0.2"/>
</g>
<g clip-path="url(#clip5_29_2)">
<path d="M1224.53 191.691C1224.53 198.575 1218.95 204.155 1212.07 204.155C1205.19 204.155 1199.6 198.575 1199.6 191.691C1199.6 184.807 1205.19 179.226 1212.07 179.226C1218.95 179.226 1224.53 184.807 1224.53 191.691Z" fill="black" fill-opacity="0.2"/>
<path fill-rule="evenodd" clip-rule="evenodd" d="M1250.88 169.216C1267.9 174.426 1279 182.827 1279 191.691C1279 200.528 1267.96 208.928 1251.04 214.138C1255 231.43 1253.28 245.204 1245.62 249.622C1243.82 250.659 1241.74 251.15 1239.45 251.15C1231.95 251.15 1222.13 245.858 1212.21 236.64C1202.28 245.913 1192.46 251.259 1184.96 251.259C1182.67 251.259 1180.59 250.768 1178.82 249.731C1171.13 245.313 1169.38 231.512 1173.31 214.165C1156.29 208.956 1145.19 200.555 1145.19 191.691C1145.19 182.854 1156.24 174.48 1173.2 169.244C1169.25 151.951 1170.97 138.178 1178.63 133.759C1180.43 132.723 1182.5 132.232 1184.79 132.232V132.205C1192.29 132.205 1202.11 137.496 1212.04 146.715C1221.97 137.441 1231.79 132.095 1239.29 132.095V132.123C1241.54 132.127 1243.61 132.618 1245.37 133.65C1253.06 138.069 1254.81 151.87 1250.88 169.216ZM1239.26 138.178C1233.59 138.192 1225.26 142.719 1216.38 150.97C1220.22 154.979 1224.04 159.561 1227.72 164.607C1233.86 165.262 1239.7 166.271 1245.04 167.58C1245.64 164.825 1246.14 162.125 1246.44 159.561C1247.69 149.142 1246.08 141.042 1242.37 138.914C1241.53 138.45 1240.52 138.205 1239.26 138.205V138.178ZM1207.71 150.997C1198.81 142.787 1190.44 138.287 1184.79 138.287V138.314C1183.54 138.314 1182.48 138.532 1181.66 139.023C1177.98 141.178 1176.39 149.279 1177.68 159.698C1178 162.234 1178.47 164.88 1179.09 167.607C1184.44 166.271 1190.28 165.262 1196.44 164.607C1200.07 159.561 1203.89 155.006 1207.71 150.997ZM1239.81 184.272C1241.23 180.645 1242.48 177.017 1243.49 173.499C1239.92 172.626 1236.18 171.917 1232.31 171.344C1233.64 173.417 1234.98 175.544 1236.23 177.726C1237.52 179.908 1238.69 182.09 1239.81 184.272ZM1224.42 212.965C1226.69 209.719 1228.87 206.228 1231 202.546C1233.04 198.973 1234.93 195.318 1236.64 191.664C1234.93 188.009 1233.04 184.381 1230.97 180.808C1228.84 177.153 1226.63 173.689 1224.37 170.444C1220.33 170.116 1216.21 169.926 1212.1 169.926C1207.95 169.926 1203.83 170.116 1199.77 170.471C1197.5 173.717 1195.32 177.208 1193.19 180.89C1191.15 184.463 1189.24 188.118 1187.55 191.773C1189.27 195.427 1191.15 199.055 1193.22 202.628C1195.35 206.283 1197.56 209.747 1199.82 212.992C1203.86 213.32 1207.98 213.511 1212.1 213.511C1216.24 213.511 1220.36 213.32 1224.42 212.965ZM1243.57 209.856C1242.54 206.31 1241.28 202.655 1239.81 199C1238.69 201.182 1237.52 203.392 1236.26 205.574C1235.01 207.783 1233.67 209.938 1232.33 212.038C1236.23 211.465 1240 210.729 1243.57 209.856ZM1204.57 219.375C1207.08 222.566 1209.61 225.484 1212.15 228.103C1214.66 225.484 1217.2 222.566 1219.65 219.375C1217.17 219.511 1214.63 219.566 1212.07 219.566C1209.53 219.566 1207.02 219.484 1204.57 219.375ZM1180.68 209.883C1184.25 210.756 1187.99 211.465 1191.86 212.038C1190.52 209.965 1189.21 207.837 1187.93 205.655C1186.65 203.473 1185.48 201.292 1184.36 199.11C1182.94 202.737 1181.69 206.365 1180.68 209.883ZM1219.6 164.007C1217.09 160.816 1214.55 157.897 1212.01 155.279C1209.51 157.897 1206.97 160.816 1204.51 164.007C1207 163.871 1209.53 163.816 1212.1 163.816C1214.63 163.816 1217.14 163.898 1219.6 164.007ZM1187.9 177.808C1189.16 175.599 1190.49 173.444 1191.83 171.344C1187.93 171.917 1184.17 172.653 1180.59 173.499C1181.63 177.044 1182.89 180.699 1184.36 184.354C1185.48 182.172 1186.65 179.99 1187.9 177.808ZM1151.25 191.691C1151.25 195.973 1157.49 201.373 1167.15 205.492C1169.52 206.501 1172.08 207.428 1174.78 208.274C1176.31 202.955 1178.33 197.418 1180.84 191.745C1178.3 186.045 1176.26 180.481 1174.7 175.135C1172.06 175.981 1169.49 176.881 1167.15 177.89C1157.49 181.981 1151.25 187.409 1151.25 191.691ZM1177.76 223.82C1176.5 234.239 1178.11 242.34 1181.82 244.467C1182.64 244.931 1183.68 245.177 1184.9 245.204C1190.58 245.204 1198.92 240.676 1207.81 232.412C1203.97 228.403 1200.15 223.82 1196.47 218.775C1190.33 218.12 1184.49 217.111 1179.15 215.802C1178.55 218.556 1178.06 221.257 1177.76 223.82ZM1242.53 244.358C1246.22 242.204 1247.8 234.103 1246.52 223.684C1246.22 221.148 1245.73 218.502 1245.1 215.747C1239.75 217.084 1233.92 218.093 1227.75 218.747C1224.12 223.793 1220.31 228.348 1216.49 232.357C1225.38 240.567 1233.75 245.067 1239.4 245.067C1240.65 245.067 1241.72 244.849 1242.53 244.358ZM1249.46 208.247C1252.11 207.401 1254.67 206.501 1257.02 205.492C1266.67 201.401 1272.92 195.973 1272.95 191.691C1272.95 187.409 1266.7 182.008 1257.05 177.89C1254.64 176.881 1252.08 175.953 1249.38 175.108C1247.85 180.426 1245.84 185.963 1243.33 191.636C1245.86 197.337 1247.91 202.901 1249.46 208.247Z" fill="black" fill-opacity="0.2"/>
</g>
</g>
<defs>
<clipPath id="clip0_29_2">
<rect width="1200" height="800" fill="white"/>
</clipPath>
<clipPath id="clip1_29_2">
<rect width="178" height="158.463" fill="white" transform="translate(791 113)"/>
</clipPath>
<clipPath id="clip2_29_2">
<rect width="274" height="243.927" fill="white" transform="translate(737 338.537)"/>
</clipPath>
<clipPath id="clip3_29_2">
<rect width="178" height="158.463" fill="white" transform="translate(476 562)"/>
</clipPath>
<clipPath id="clip4_29_2">
<rect width="134.192" height="119.463" fill="white" transform="translate(1127.81 621)"/>
</clipPath>
<clipPath id="clip5_29_2">
<rect width="134.192" height="119.463" fill="white" transform="translate(1145 132)"/>
</clipPath>
</defs>
</svg>
