<svg width="32" height="32" viewBox="0 0 32 32" fill="none" xmlns="http://www.w3.org/2000/svg">
<path fill-rule="evenodd" clip-rule="evenodd" d="M15.4718 1.09878L15.4696 1.1L2.55867 8.18351C2.48054 8.22687 2.35426 8.33996 2.24574 8.52323C2.13677 8.70726 2.09961 8.87024 2.09961 8.95603V23.044C2.09961 23.1302 2.13704 23.2942 2.24606 23.4786C2.35515 23.6631 2.48007 23.7736 2.5543 23.8141L2.55647 23.8153L15.4718 30.9012C15.5571 30.9483 15.7342 31 15.9662 31C16.1983 31 16.3753 30.9483 16.4607 30.9012L16.4629 30.9L29.3739 23.8165C29.452 23.7732 29.5783 23.6601 29.6868 23.4768C29.7957 23.2928 29.8329 23.1298 29.8329 23.044V8.95603C29.8329 8.86978 29.7955 8.7057 29.6865 8.52131C29.5774 8.33681 29.4525 8.2264 29.3783 8.18595L29.3761 8.18473L16.4607 1.09879C16.3752 1.05159 16.1973 1 15.968 1C15.7344 1 15.5567 1.05193 15.4718 1.09878ZM29.8571 24.692L16.9439 31.7767C16.4045 32.0744 15.528 32.0744 14.9886 31.7767L2.07546 24.692C1.53608 24.3978 1.09961 23.6571 1.09961 23.044V8.95603C1.09961 8.34289 1.53608 7.60571 2.07546 7.30801L14.9886 0.223281C15.2583 0.074427 15.6132 0 15.968 0C16.3194 0 16.6742 0.074427 16.9439 0.223281L29.8571 7.30801C30.3965 7.60217 30.8329 8.34289 30.8329 8.95603V23.044C30.8329 23.6571 30.3965 24.3943 29.8571 24.692Z" fill="white"/>
<path d="M11.1802 12.3375C11.1802 12.3375 11.1802 12.3375 11.1766 12.3375H11.1802ZM11.1624 12.334C11.166 12.334 11.166 12.334 11.1624 12.334ZM7.92969 15.1516H8.98716V9.96296H7.92969V15.1516ZM11.244 12.3411C11.244 12.3446 11.244 12.3446 11.244 12.3411ZM11.2298 12.3411C11.2369 12.3411 11.2405 12.3411 11.244 12.3411C11.2405 12.3411 11.2334 12.3411 11.2298 12.3411ZM11.2015 12.3375C11.205 12.3375 11.205 12.3375 11.2086 12.3375C11.2086 12.3375 11.205 12.3375 11.2015 12.3375ZM11.1624 12.334V10.7746C11.3789 10.7462 11.6202 10.732 11.826 10.732C12.5854 10.732 12.8444 10.9624 12.8444 11.5366C12.8444 12.1958 12.4576 12.3623 11.8047 12.3623C11.5989 12.3623 11.3966 12.3588 11.1908 12.3375C11.1873 12.3375 11.1873 12.3375 11.1837 12.3375H11.1802C11.1802 12.3375 11.1766 12.3375 11.1731 12.3375H11.1695C11.1695 12.3375 11.1695 12.3375 11.1731 12.3375H11.1695C11.1695 12.334 11.166 12.334 11.1624 12.334ZM10.112 10.0516V15.1516H11.1624V13.1704C11.3469 13.181 11.5847 13.1917 11.7976 13.1917L12.8622 15.148H14.0758L12.8906 13.0712C13.5009 12.8869 13.8877 12.4545 13.8877 11.5366C13.8877 10.1331 12.9473 9.90625 11.8012 9.90625C11.1802 9.90979 10.5627 9.97004 10.112 10.0516ZM15.7968 12.5573C15.7968 11.4976 15.8181 10.7746 16.8046 10.7746C17.7876 10.7746 17.8124 11.4976 17.8124 12.5573C17.8124 13.6134 17.7876 14.3364 16.8046 14.3364C15.8217 14.3364 15.7968 13.6134 15.7968 12.5573ZM14.7287 12.5573C14.7287 14.4357 15.19 15.2047 16.8082 15.2047C18.4228 15.2047 18.8841 14.4357 18.8841 12.5573C18.8841 10.6789 18.4228 9.90979 16.8082 9.90979C15.19 9.90979 14.7287 10.6789 14.7287 12.5573ZM19.8706 10.6966V15.148H20.818V11.331L22.4681 14.5207C22.7343 15.0382 22.9791 15.2047 23.3659 15.2047C23.7704 15.2047 24.0011 14.9637 24.0011 14.4144V9.96296H23.0536V13.7658L21.4035 10.5903C21.141 10.0905 20.8677 9.90979 20.5093 9.90979C20.1119 9.90979 19.8706 10.1437 19.8706 10.6966Z" fill="white"/>
<path d="M10.9645 17.0848V19.3105H8.17885V17.0848H7.76367V22.0147H8.17885V19.672H10.9645V22.0147H11.3796V17.0848H10.9645ZM23.576 17.0848L21.2943 19.3672V17.0848H20.8791V22.0147H21.2943V19.594L23.6186 22.0147H24.1722L21.713 19.4664L24.1048 17.0848H23.576ZM14.3817 17.588L15.3611 20.2036H13.3988L14.3817 17.588ZM14.0872 17.3151L12.2916 22.0111H12.7175L13.2675 20.5474H15.4924L16.0389 22.0111H16.4825L14.7082 17.3151C14.6372 17.1308 14.5414 17.0352 14.3959 17.0352C14.2504 17.0352 14.1582 17.1273 14.0872 17.3151ZM16.9012 19.5479C16.9012 21.2952 17.2844 22.0643 18.8671 22.0643C19.2752 22.0643 19.6371 22.0218 19.9459 21.9615L19.9068 21.6284C19.6336 21.6673 19.3603 21.7028 19.0836 21.7028C17.5257 21.7028 17.3235 20.9975 17.3235 19.5515C17.3235 18.109 17.4938 17.3967 19.0836 17.3967C19.3497 17.3967 19.6513 17.4356 19.9033 17.4746L19.9423 17.1308C19.6336 17.0706 19.261 17.0352 18.8635 17.0352C17.2844 17.0352 16.9012 17.7971 16.9012 19.5479Z" fill="white"/>
</svg>
